<svg xmlns="http://www.w3.org/2000/svg" width="42" height="42" viewBox="0 0 42 42" fill="none">
<rect x="2" y="5" width="38" height="32" rx="3" fill="url(#paint0_linear_dark_border)" stroke="url(#stroke_dark)" stroke-width="1"/>
<rect x="3" y="11" width="36" height="25" rx="2" fill="url(#paint1_linear_light_inside)"/>
<rect x="2" y="5" width="38" height="6" rx="3" fill="url(#paint2_linear_header)"/>
<circle cx="6" cy="8" r="1.5" fill="#FFBC5E"/>
<circle cx="9" cy="8" r="1.5" fill="#FFDB6E"/>
<circle cx="12" cy="8" r="1.5" fill="#FFBC5E"/>
<rect x="6" y="14" width="30" height="2" rx="1" fill="url(#paint3_linear_content)"/>
<rect x="6" y="18" width="26" height="2" rx="1" fill="url(#paint4_linear_content)"/>
<rect x="6" y="22" width="30" height="2" rx="1" fill="url(#paint5_linear_content)"/>
<rect x="6" y="26" width="26" height="2" rx="1" fill="url(#paint6_linear_content)"/>
<rect x="6" y="30" width="30" height="2" rx="1" fill="url(#paint7_linear_content)"/>
<defs>
<linearGradient id="paint0_linear_dark_border" x1="2" y1="5" x2="40" y2="37" gradientUnits="userSpaceOnUse">
<stop offset="0" stop-color="#C59400"/>
<stop offset="1" stop-color="#8F6C00"/>
</linearGradient>
<linearGradient id="stroke_dark" x1="2" y1="5" x2="40" y2="37" gradientUnits="userSpaceOnUse">
<stop offset="0" stop-color="#A07800"/>
<stop offset="1" stop-color="#705000"/>
</linearGradient>
<linearGradient id="paint1_linear_light_inside" x1="3" y1="11" x2="39" y2="36" gradientUnits="userSpaceOnUse">
<stop offset="0.259336" stop-color="#FFE8A0"/>
<stop offset="1" stop-color="#FFD67D"/>
</linearGradient>
<linearGradient id="paint2_linear_header" x1="2" y1="5" x2="40" y2="11" gradientUnits="userSpaceOnUse">
<stop offset="0.259336" stop-color="#FFDB6E"/>
<stop offset="1" stop-color="#FFBC5E"/>
</linearGradient>
<linearGradient id="paint3_linear_content" x1="6" y1="14" x2="36" y2="16" gradientUnits="userSpaceOnUse">
<stop offset="0.259336" stop-color="#FFDB6E"/>
<stop offset="1" stop-color="#FFBC5E"/>
</linearGradient>
<linearGradient id="paint4_linear_content" x1="6" y1="18" x2="32" y2="20" gradientUnits="userSpaceOnUse">
<stop offset="0.259336" stop-color="#FFDB6E"/>
<stop offset="1" stop-color="#FFBC5E"/>
</linearGradient>
<linearGradient id="paint5_linear_content" x1="6" y1="22" x2="36" y2="24" gradientUnits="userSpaceOnUse">
<stop offset="0.259336" stop-color="#FFDB6E"/>
<stop offset="1" stop-color="#FFBC5E"/>
</linearGradient>
<linearGradient id="paint6_linear_content" x1="6" y1="26" x2="32" y2="28" gradientUnits="userSpaceOnUse">
<stop offset="0.259336" stop-color="#FFDB6E"/>
<stop offset="1" stop-color="#FFBC5E"/>
</linearGradient>
<linearGradient id="paint7_linear_content" x1="6" y1="30" x2="36" y2="32" gradientUnits="userSpaceOnUse">
<stop offset="0.259336" stop-color="#FFDB6E"/>
<stop offset="1" stop-color="#FFBC5E"/>
</linearGradient>
</defs>
</svg>